<svg xmlns="http://www.w3.org/2000/svg" viewBox="0 0 64 64">
  <defs>
    <linearGradient id="g" x1="0" x2="0" y1="0" y2="1">
      <stop offset="0%" stop-color="#14b8a6"/>
      <stop offset="100%" stop-color="#0f766e"/>
    </linearGradient>
  </defs>
  <rect x="4" y="4" width="56" height="56" rx="12" fill="url(#g)"/>
  <g fill="#001512" opacity="0.15">
    <circle cx="32" cy="32" r="26"/>
  </g>
  <g fill="#e6f0ee">
    <path d="M32 14a2 2 0 0 1 2 2v14h12a2 2 0 1 1 0 4H34v14a2 2 0 1 1-4 0V34H18a2 2 0 1 1 0-4h12V16a2 2 0 0 1 2-2z"/>
  </g>
  <circle cx="32" cy="32" r="29" fill="none" stroke="#0a241f" stroke-width="2"/>
</svg>


